<?xml version="1.0" encoding="UTF-8"?>
<svg width="120px" height="120px" viewBox="0 0 120 120" version="1.1" xmlns="http://www.w3.org/2000/svg" xmlns:xlink="http://www.w3.org/1999/xlink">
    <title>customer</title>
    <g id="页面-1" stroke="none" stroke-width="1" fill="none" fill-rule="evenodd">
        <g id="首页备份" transform="translate(-357.000000, -2025.000000)">
            <g id="customer" transform="translate(357.000000, 2025.000000)">
                <path d="M98.75,50 L98.75,61.25 C98.75,63.4145138 97.9640617,65.3954618 96.6619929,66.9230364 C100.085234,69.0818322 102.386636,72.8574811 102.49593,77.1778505 L102.5,77.5 L102.5,102.5 L77.5,102.5 L77.5,99.9990135 L100,100 L100,77.5 C100,73.662089 97.8379508,70.3291517 94.6653794,68.6527151 L94.4855327,68.7643795 C93.1738626,69.5490368 91.6395954,70 90,70 C88.3604046,70 86.8261374,69.5490368 85.5144673,68.7643795 L85.3346206,68.6527151 C82.239429,70.288263 80.106067,73.5004921 80.0038418,77.2200952 L80,77.5 L80,74.5 C80,73.219586 79.7994626,71.98601 79.4280825,70.8289667 C80.4233128,69.2537444 81.7614133,67.9164511 83.3374822,66.9216674 C82.0355921,65.3945892 81.25,63.414037 81.25,61.25 L81.25,61.25 L81.25,50 L98.75,50 Z M38.75,50 L38.75,61.25 C38.75,63.414037 37.9644079,65.3945892 36.6628532,66.9220269 C38.2385867,67.9164511 39.5766872,69.2537444 40.5719175,70.8289667 C40.2005374,71.98601 40,73.219586 40,74.5 L40,74.5 L40,77.5 L39.9961582,77.2200952 C39.893933,73.5004921 37.760571,70.288263 34.6653794,68.6527151 L34.4855327,68.7643795 C33.1738626,69.5490368 31.6395954,70 30,70 C28.3604046,70 26.8261374,69.5490368 25.5144673,68.7643795 L25.3346206,68.6527151 C22.1620492,70.3291517 20,73.662089 20,77.5 L20,77.5 L20,100 L42.5,99.9990135 L42.5,102.5 L17.5,102.5 L17.5,77.5 L17.5040704,77.1778505 C17.613364,72.8574811 19.9147664,69.0818322 23.3376199,66.9215615 C22.0359383,65.3954618 21.25,63.4145138 21.25,61.25 L21.25,61.25 L21.25,50 L38.75,50 Z M36.25,52.5 L23.75,52.5 L23.75,61.25 C23.75,63.014243 24.4809919,64.6077536 25.6566207,65.7441771 L25.6806121,65.7663799 L25.8124617,65.8897905 C25.8781308,65.9490961 25.9450651,66.0070273 26.0132192,66.0635386 C26.0255075,66.0737291 26.0381619,66.08414 26.0508579,66.0945019 L26.0132192,66.0635386 C26.0770701,66.1164819 26.1419916,66.168179 26.2079464,66.2185926 L26.0508579,66.0945019 C26.1211082,66.1518375 26.1926289,66.2076753 26.2653714,66.2619669 L26.2079464,66.2185926 C26.2757862,66.270447 26.3447192,66.3209436 26.4147049,66.3700416 L26.2653714,66.2619669 C26.3368928,66.315347 26.4095953,66.3672323 26.4834325,66.4175764 L26.6911161,66.5532318 C26.7093216,66.5646148 26.7275898,66.5759067 26.7459202,66.5871069 L26.6915102,66.5534781 C26.7692331,66.6020669 26.8481009,66.6489945 26.928064,66.6942114 L26.7459202,66.5871069 C26.8180532,66.6311811 26.8911492,66.673834 26.9651694,66.7150268 L26.928064,66.6942114 C27.0080708,66.739453 27.0891741,66.7829819 27.1713241,66.8247484 L26.9651694,66.7150268 C27.0455918,66.7597824 27.1271051,66.8028144 27.2096594,66.8440727 L27.1713241,66.8247484 C27.2565573,66.8680824 27.3429171,66.9095192 27.430348,66.9490032 L27.2096594,66.8440727 C27.3170314,66.8977342 27.4261644,66.9483954 27.5369484,66.9959465 L27.430348,66.9490032 C27.5032146,66.9819098 27.5768251,67.0134601 27.6511475,67.0436217 L27.5369484,66.9959465 C27.6206946,67.0318922 27.7053843,67.0660607 27.79097,67.0984044 L27.6511475,67.0436217 C27.7306674,67.0758927 27.8110021,67.106574 27.8921121,67.1356263 L27.79097,67.0984044 C27.8621546,67.1253057 27.933959,67.1509447 28.0063559,67.175294 L27.8921121,67.1356263 C28.0056548,67.1762953 28.1207169,67.2137721 28.2371903,67.2479485 L28.0063559,67.175294 C28.1185253,67.2130201 28.2321172,67.2476503 28.34703,67.2790831 L28.2371903,67.2479485 C28.3164182,67.271196 28.396299,67.2929165 28.4767989,67.3130757 L28.34703,67.2790831 C28.4362707,67.3034936 28.526308,67.3259758 28.6170944,67.3464821 L28.4767989,67.3130757 C28.5609388,67.3341465 28.6457549,67.3535118 28.7312084,67.3711327 L28.6170944,67.3464821 C28.6949836,67.3640752 28.7734241,67.3802139 28.852386,67.3948681 L28.7312084,67.3711327 C28.8542967,67.396514 28.9787073,67.418276 29.104324,67.4363025 L28.852386,67.3948681 C28.9453615,67.4121231 29.0390599,67.42732 29.1334319,67.4404097 L29.104324,67.4363025 C29.197879,67.449728 29.292103,67.4610816 29.386948,67.4703152 L29.1334319,67.4404097 C29.2311256,67.4539602 29.3295413,67.4652525 29.4286246,67.4742324 L29.386948,67.4703152 C29.4765471,67.4790381 29.5667005,67.485869 29.6573677,67.4907676 L29.4286246,67.4742324 C29.5266771,67.4831188 29.6253834,67.4897406 29.7246907,67.4940451 L30,67.5 L30,67.5 L29.972,67.499 L30,67.5 C30.0093789,67.5 30.018753,67.4999793 30.0281223,67.4999381 L30,67.5 L30,67.5 L30.2502208,67.4950827 C30.2947336,67.4933301 30.3391267,67.491112 30.3833955,67.4884331 C30.4278249,67.4857424 30.4718955,67.482607 30.5158375,67.4790169 L30.3833955,67.4884331 C30.4664596,67.4834065 30.5490859,67.4767575 30.6312431,67.4685175 L30.5158375,67.4790169 C30.7294974,67.4615609 30.940115,67.4333575 31.1471481,67.3949468 C31.1663992,67.3913818 31.1851549,67.3878115 31.2038807,67.3841576 L31.1471481,67.3949468 C31.2214712,67.3811577 31.2953324,67.3660532 31.3687066,67.3496581 L31.2038807,67.3841576 C31.307742,67.3638915 31.4106832,67.3410532 31.5126353,67.3157118 L31.3687066,67.3496581 C31.4542403,67.3305461 31.5391121,67.3096805 31.6232824,67.2871009 L31.5126353,67.3157118 C31.5900078,67.29648 31.6668106,67.2758065 31.7430136,67.2537215 L31.6232824,67.2871009 C31.819538,67.2344531 32.0119793,67.1724869 32.2001027,67.1017043 C32.2345394,67.0888176 32.2689612,67.0755183 32.3032343,67.0619246 L32.2001027,67.1017043 C32.2866338,67.0691464 32.3722512,67.0347232 32.4569062,66.9984836 L32.3032343,67.0619246 C32.3781543,67.0322091 32.4523634,67.0010868 32.5258288,66.9685904 L32.4569062,66.9984836 C32.5455434,66.9605391 32.6331254,66.9206033 32.7195958,66.8787321 L32.5258288,66.9685904 C32.6025123,66.9346705 32.6783855,66.8992535 32.7534115,66.8623763 L32.7195958,66.8787321 C32.8878094,66.7972788 33.0518167,66.7085016 33.2112032,66.6128133 C33.2263848,66.6039607 33.2417535,66.5946491 33.2570787,66.5852733 L33.2112032,66.6128133 C33.2867598,66.5674526 33.361278,66.5205389 33.4347137,66.4721161 L33.2570787,66.5852733 C33.3331112,66.5387578 33.4080722,66.4906626 33.4819162,66.4410334 L33.4347137,66.4721161 C33.6677086,66.3184814 33.8898068,66.1496554 34.0995989,65.9670424 C34.111942,65.9569905 34.1235688,65.9468 34.1351573,65.9365671 L34.3193879,65.7663799 L34.3193879,65.7663799 L34.3433793,65.7441771 C35.5190081,64.6077536 36.25,63.014243 36.25,61.25 L36.25,61.25 L36.25,60.516 L33.642767,63.125 L28.75,63.125 L28.75,60.625 L32.605,60.625 L36.25,56.982 L36.25,52.5 Z M96.25,52.5 L83.75,52.5 L83.75,61.25 C83.75,63.014243 84.4809919,64.6077536 85.6566207,65.7441771 L85.6806121,65.7663799 L85.6806121,65.7663799 L85.8648427,65.9365671 C85.8764312,65.9468 85.888058,65.9569905 85.8997227,65.9671385 C86.0961077,66.1373947 86.3025234,66.2957492 86.518504,66.4409658 C86.5336314,66.4514826 86.5492284,66.4618638 86.5648745,66.4721766 L86.518504,66.4409658 C86.5921726,66.4904976 86.666954,66.5385008 86.7428028,66.5849304 L86.5648745,66.4721766 C86.6385193,66.5207177 86.7132516,66.5677429 86.7890272,66.6132077 L86.7428028,66.5849304 C86.9059599,66.6848043 87.074056,66.7773963 87.2466392,66.8622562 C87.257832,66.8679028 87.2690947,66.8733965 87.2803762,66.8788573 L87.2466392,66.8622562 C87.321665,66.8991466 87.3975388,66.9345759 87.4742234,66.9685069 L87.2803762,66.8788573 C87.3645325,66.919593 87.4497407,66.958497 87.5359491,66.9955174 L87.4742234,66.9685069 C87.5476615,67.0010014 87.6218433,67.0321218 87.6967361,67.0618357 L87.5359491,66.9955174 C87.622974,67.0328885 87.7110181,67.0683403 87.8000281,67.1018194 L87.6967361,67.0618357 C87.8793576,67.134291 88.0662069,67.1983831 88.2568114,67.2536407 C88.2968833,67.2652843 88.3369445,67.2764602 88.3771659,67.2872449 L88.2568114,67.2536407 C88.3329404,67.275711 88.4096685,67.2963721 88.4869656,67.3155937 L88.3771659,67.2872449 C88.461135,67.3097598 88.5458019,67.3305695 88.6311272,67.3496346 L88.4869656,67.3155937 C88.5891838,67.3410126 88.6923968,67.3639144 88.7965352,67.3842298 L88.6311272,67.3496346 C88.7044029,67.3660074 88.7781641,67.3810935 88.852386,67.3948681 L88.7965352,67.3842298 C88.9841977,67.420839 89.1748648,67.4490489 89.3681289,67.4684533 C89.4072852,67.4723817 89.4459167,67.475896 89.4846481,67.4790572 L89.3681289,67.4684533 C89.4504155,67.4767151 89.5331729,67.4833807 89.6163697,67.4884186 L89.4846481,67.4790572 C89.5725232,67.4862294 89.6609128,67.4915838 89.7497792,67.4950827 L89.6163697,67.4884186 C89.7432617,67.4961025 89.8711757,67.5 90,67.5 L89.972,67.499 L90,67.5 C90.0093789,67.5 90.018753,67.4999793 90.0281223,67.4999381 C90.0187856,67.500013 90.0093943,67.5 90,67.5 L90.2743062,67.4940885 C90.2970425,67.4931066 90.3197472,67.4920032 90.3424199,67.4907791 C90.4194849,67.4866154 90.4959683,67.4810748 90.5720579,67.4741705 L90.3424199,67.4907791 C90.4329059,67.4858933 90.5228803,67.479083 90.6123028,67.4703881 L90.5720579,67.4741705 C90.6709959,67.4651929 90.769268,67.4539096 90.8668202,67.4403747 L90.6123028,67.4703881 C90.7073421,67.4611471 90.801758,67.4497775 90.8955022,67.4363275 L90.8668202,67.4403747 C90.9610046,67.4273071 91.0545179,67.4121407 91.1473113,67.3949243 L90.8955022,67.4363275 C91.021237,67.4182876 91.1457635,67.3965052 91.2689651,67.3710969 L91.1473113,67.3949243 C91.226431,67.3802448 91.3050274,67.3640749 91.3830702,67.3464449 L91.2689651,67.3710969 C91.3541466,67.3535296 91.4386947,67.3342289 91.522571,67.3132335 L91.3830702,67.3464449 C91.4738946,67.3259275 91.5639692,67.3034324 91.6532465,67.2790074 L91.522571,67.3132335 C91.6033311,67.293018 91.6834683,67.2712314 91.7629483,67.2479078 L91.6532465,67.2790074 C91.7680016,67.2476121 91.8814393,67.213028 91.9934585,67.1753565 L91.7629483,67.2479078 C91.8794406,67.213723 91.9945211,67.1762366 92.1080815,67.1355569 L91.9934585,67.1753565 C92.065848,67.1510122 92.1376451,67.1253785 92.2088225,67.0984828 L92.1080815,67.1355569 C92.1891978,67.1064994 92.2695384,67.0758125 92.3490641,67.0435358 L92.2088225,67.0984828 C92.2944591,67.0661234 92.3791985,67.0319371 92.4629935,66.9959714 L92.3490641,67.0435358 C92.4232493,67.0134267 92.4967252,66.981934 92.5694599,66.9490899 L92.4629935,66.9959714 C92.5738261,66.9484009 92.6830062,66.8977174 92.7904239,66.8440311 L92.5694599,66.9490899 C92.6569342,66.9095899 92.7433364,66.8681352 92.8286108,66.8247815 L92.7904239,66.8440311 C92.872959,66.8027808 92.9544537,66.7597577 93.0348579,66.7150116 L92.8286108,66.8247815 C92.9107717,66.7830107 92.9918856,66.7394769 93.0719028,66.6942301 L93.0348579,66.7150116 C93.1097807,66.673316 93.1837567,66.6301244 93.2567456,66.5854771 L93.0719028,66.6942301 C93.1520124,66.6489311 93.2310228,66.601915 93.3088839,66.5532318 L93.3084898,66.5534781 C93.4025949,66.4946383 93.4946412,66.43363 93.5849355,66.3702939 C93.6356906,66.3346869 93.6855404,66.2986071 93.7348291,66.2618172 L93.5849355,66.3702939 C93.6549549,66.3211795 93.7239208,66.2706653 93.7917926,66.2187921 L93.7348291,66.2618172 C93.8074539,66.2076091 93.8788607,66.1518595 93.9490012,66.094617 L93.7917926,66.2187921 C93.8579489,66.16823 93.9230656,66.1163766 93.9871052,66.0632696 L93.9490012,66.094617 C94.0302374,66.028319 94.1097749,65.9600184 94.1875383,65.8897905 L94.3193879,65.7663799 L94.3433793,65.7441771 C95.5190081,64.6077536 96.25,63.014243 96.25,61.25 L96.25,61.25 L96.25,60.516 L93.642767,63.125 L88.75,63.125 L88.75,60.625 L92.605,60.625 L96.25,56.982 L96.25,52.5 Z" id="形状结合" fill="#000000" fill-rule="nonzero"></path>
                <path d="M67.5,20 C72.3324916,20 76.25,23.9175084 76.25,28.75 L76.2509662,30.1252188 C79.1032852,30.70468 81.25,33.226644 81.25,36.25 C81.25,39.273356 79.1032852,41.79532 76.2509662,42.3747812 L76.25,48.75 C76.25,53.6149423 74.1121471,57.9805623 70.7246518,60.9586497 C77.4736669,63.2930076 82.3492185,69.6419546 82.4965668,77.1498492 L82.5,77.5 L82.5,102.5 L37.5,102.5 L37.5,77.5 C37.5,69.8398547 42.4216616,63.3292251 49.275307,60.957789 C45.8878529,57.9805623 43.75,53.6149423 43.75,48.75 L43.75,48.75 L43.749,32.5 L42.5,32.5 C37.6675084,32.5 33.75,28.5824916 33.75,23.75 L33.75,20 L67.5,20 Z M68.1233336,62.8256324 C65.7283059,64.2105339 62.9563478,65 60,65 C57.0407424,65 54.2662377,64.2089791 51.8763942,62.8268457 C45.1901282,64.2418194 40.1483955,70.1125825 40.0032178,77.1861718 L40,77.5 L40,100 L80,100 L80,77.5 C80,70.2867654 74.908513,64.2627113 68.1233336,62.8256324 Z M63.3202172,67.6180452 L64.8819548,69.5702172 L61.572,72.217 L67.1980832,89.0942496 C67.3763372,89.6290117 67.1746218,90.2169188 66.7056043,90.5295971 L60,95 L53.2943957,90.5295971 C52.8253782,90.2169188 52.6236628,89.6290117 52.8019168,89.0942496 L58.427,72.217 L55.1180452,69.5702172 L56.6797828,67.6180452 L59.9165779,70.2053041 C59.9717568,70.2015939 60.0275058,70.2015481 60.0834909,70.2053335 L63.3202172,67.6180452 Z M60,75.40375 L55.47375,88.97875 L59.99875,91.99375 L64.525,88.97875 L60,75.40375 Z M66.25,32.5 L46.25,32.5 L46.25,48.75 C46.25,53.5239374 48.6829127,57.7296376 52.3765043,60.1948668 L52.3788281,60.1949878 C52.8044244,60.4792162 53.2467683,60.7402863 53.7040641,60.9764137 C53.7346256,60.9929031 53.7652953,61.0085814 53.7960313,61.0241477 L53.7040641,60.9764137 C53.8224251,61.0375301 53.9417878,61.0969755 54.062121,61.1547191 L53.7960313,61.0241477 C53.8999477,61.0767761 54.0046226,61.1281237 54.1100355,61.1781696 L54.062121,61.1547191 C54.3049256,61.2712323 54.5516817,61.3808163 54.8021333,61.4832171 C54.8147579,61.4887506 54.8273913,61.4938908 54.840034,61.4990127 L54.8021333,61.4832171 C54.9250969,61.5334926 55.0489514,61.5820366 55.1736664,61.6288189 L54.840034,61.4990127 C54.9599545,61.5475963 55.0807162,61.594537 55.2022912,61.6398068 L55.1736664,61.6288189 C55.425063,61.7231213 55.6799561,61.8102657 55.938098,61.8900057 C55.9479913,61.8932265 55.9576405,61.896194 55.9672942,61.899151 L55.938098,61.8900057 C56.0402556,61.9215622 56.142922,61.9519591 56.2460818,61.9811811 L55.9672942,61.899151 C56.1021555,61.9404612 56.2378988,61.9797536 56.3744888,62.016993 L56.3744086,62.0168558 C56.527927,62.0588258 56.6824337,62.0980678 56.837959,62.1346693 C56.9184271,62.1535376 56.9990643,62.1717506 57.0799668,62.1892512 L56.837959,62.1346693 C56.9429371,62.1593749 57.0483792,62.1828774 57.1542701,62.2051615 L57.0799668,62.1892512 C57.2124608,62.217912 57.3456661,62.244662 57.4795524,62.2694713 L57.1542701,62.2051615 C57.2816492,62.2319676 57.4096776,62.2570106 57.5383287,62.2802638 L57.4795524,62.2694713 C57.6217863,62.2958274 57.7647887,62.3199931 57.9085234,62.3419324 L57.5383287,62.2802638 C57.688393,62.3073873 57.8393044,62.3320755 57.9910206,62.3542861 L57.9085234,62.3419324 C58.0146128,62.3581257 58.1211012,62.373106 58.2279739,62.3868589 L57.9910206,62.3542861 C58.1337247,62.3751774 58.2771407,62.3938766 58.4212335,62.4103484 L58.2279739,62.3868589 C58.5344168,62.4262935 58.8440196,62.4556365 59.1564381,62.4745459 C59.1604658,62.474791 59.1647912,62.4750509 59.1691172,62.4753087 L59.1564381,62.4745459 C59.282336,62.482166 59.4086911,62.4880918 59.5354809,62.4923009 L59.1691172,62.4753087 C59.3169448,62.4841198 59.4654014,62.4905953 59.6144506,62.4946988 L59.6145589,62.4947017 L60,62.5 L60,62.5 L60.3875559,62.4946434 C60.4109651,62.4939956 60.4343598,62.4932892 60.4577396,62.4925245 C60.847216,62.4797804 61.2324348,62.4508578 61.612909,62.4064023 C61.649917,62.4020784 61.6869439,62.3975995 61.7239251,62.3929738 L61.612909,62.4064023 C61.7539497,62.3899228 61.8943384,62.3713088 62.034042,62.3505934 L61.7239251,62.3929738 C61.8423915,62.3781556 61.9603895,62.3618304 62.0778992,62.3440178 L62.034042,62.3505934 C62.1705091,62.330358 62.3063225,62.3081175 62.4414511,62.2839028 L62.0778992,62.3440178 C62.2333896,62.3204481 62.3880252,62.2942742 62.5417601,62.265542 L62.4414511,62.2839028 C62.5772377,62.2595703 62.7123329,62.2332443 62.8467054,62.2049562 L62.5417601,62.265542 C62.6623417,62.243006 62.7823693,62.2188962 62.9018206,62.1932347 L62.8467054,62.2049562 C62.9482731,62.1835742 63.049428,62.1610711 63.1501563,62.1374606 L62.9018206,62.1932347 C63.2063499,62.1278131 63.507134,62.0523064 63.8038062,61.9670812 C63.8535627,61.9527862 63.9028683,61.9383184 63.9520582,61.9235825 L63.8038062,61.9670812 C63.8981538,61.9399779 63.9920854,61.9118918 64.0855895,61.8828345 L63.9520582,61.9235825 C64.224295,61.842028 64.492985,61.7522653 64.7578405,61.6545816 C64.7957264,61.6406097 64.8338744,61.6263467 64.8719417,61.6119196 L64.7578405,61.6545816 C64.8681161,61.6139099 64.977727,61.571865 65.0866525,61.5284678 L64.8719417,61.6119196 C64.9953832,61.5651363 65.1179758,61.516627 65.23969,61.4664211 L65.0866525,61.5284678 C65.3471568,61.4246796 65.6037406,61.3131561 65.8561201,61.194181 C65.8956726,61.1755363 65.9353459,61.1566003 65.9749135,61.1374804 L65.8561201,61.194181 C65.9529871,61.1485166 66.0492347,61.1017545 66.1448469,61.0539107 L65.9749135,61.1374804 C66.0918415,61.0809783 66.2078477,61.0228695 66.3229036,60.9631825 L66.1448469,61.0539107 C66.399775,60.9263461 66.6501862,60.7910919 66.8957763,60.6484521 C66.9269016,60.6303731 66.9575819,60.6123928 66.9881859,60.5942974 L66.8957763,60.6484521 C67.0081698,60.5831735 67.1195537,60.5163479 67.2298987,60.4480047 L66.9881859,60.5942974 C67.0930133,60.5323153 67.1969465,60.4689812 67.2999615,60.4043191 L67.2298987,60.4480047 C67.3536927,60.3713317 67.4761792,60.2927485 67.597317,60.2122962 L67.6211719,60.1949878 C71.3170873,57.7296376 73.75,53.5239374 73.75,48.75 L73.75,48.75 L73.75,45.516 L66.142767,53.125 L53.75,53.125 L53.75,50.625 L65.105,50.625 L73.3823935,42.3507748 C73.1056062,42.2990406 72.8334069,42.2342752 72.5664567,42.1571397 C72.5465401,42.1513871 72.5266287,42.1455562 72.5067468,42.1396566 C72.4564832,42.12474 72.406346,42.1093663 72.3564027,42.0935567 C72.3269488,42.084236 72.2973771,42.0747006 72.2678746,42.0650125 C72.2245612,42.0507847 72.1817695,42.0363591 72.1391273,42.021613 C72.0971418,42.0070992 72.0548101,41.992094 72.0126297,41.9767737 C71.9912134,41.9689918 71.9701479,41.9612471 71.9491206,41.9534238 C71.8978504,41.9343514 71.8467417,41.914784 71.795866,41.8947536 C71.7503467,41.8768319 71.7046707,41.8584002 71.6591878,41.8395961 C71.6273971,41.8264533 71.5961321,41.8133104 71.5649602,41.7999918 C71.5250054,41.7829215 71.4846289,41.7653092 71.4444124,41.7474024 C71.40792,41.7311536 71.3720263,41.7148756 71.336263,41.6983634 C71.2965801,41.6800405 71.2568029,41.6613094 71.2171911,41.6422888 C71.1847684,41.626724 71.1522025,41.610837 71.1197506,41.5947545 C71.0694334,41.5698106 71.0200526,41.5447435 70.9709443,41.5192244 C70.9519979,41.5093838 70.9323331,41.4990719 70.9127125,41.4886875 C70.861805,41.4617365 70.8118242,41.4346492 70.7621399,41.4070924 C70.7381463,41.3937874 70.7141248,41.3803155 70.6901738,41.3667339 C70.6439616,41.3405271 70.5979662,41.3138875 70.5522383,41.2868436 C70.5291181,41.2731722 70.5061203,41.2594277 70.4831912,41.2455811 C70.3636694,41.1734019 70.2459572,41.0984092 70.1302025,41.0207253 C70.108058,41.0058677 70.0856571,40.9906848 70.0633307,40.9754012 C70.0240772,40.9485248 69.9854195,40.9215983 69.946991,40.8943695 C69.9158805,40.8723285 69.8848546,40.8500394 69.8539814,40.8275532 C69.815692,40.7996647 69.7774673,40.771347 69.7394832,40.7427269 C69.7193526,40.7275611 69.6993062,40.7123209 69.6793278,40.6969965 C69.4440756,40.5165456 69.2182372,40.3244012 69.0026971,40.1214418 C68.9718707,40.0924147 68.941444,40.0633479 68.9112279,40.0340651 C68.8866435,40.0102385 68.8621687,39.9862411 68.837835,39.9621018 L68.8128157,39.9371843 C68.6425502,39.7669188 68.4792691,39.5896689 68.3234391,39.4059011 C68.1664379,39.2207315 68.0172659,39.0293165 67.8761052,38.8317843 C67.8720896,38.8261663 67.8680732,38.8205318 67.8640632,38.8148924 L67.8761052,38.8317843 C67.8441951,38.7871311 67.8126944,38.7421653 67.7816085,38.6968924 L67.8640632,38.8148924 C67.7697703,38.6822826 67.6790812,38.5469316 67.592139,38.4089821 C67.5733602,38.3791817 67.5550145,38.3496817 67.5368402,38.3200653 C67.5139859,38.2828238 67.4913921,38.2453794 67.4690722,38.2077533 C67.4379967,38.1553685 67.4073834,38.1025108 67.3773111,38.0493069 C67.3683429,38.0334386 67.3597298,38.0180897 67.3511617,38.0027122 C67.3212994,37.949124 67.291745,37.894739 67.2627542,37.8400096 C67.2490133,37.8140642 67.2357656,37.7887497 67.2226385,37.7633627 C67.2103583,37.7396135 67.1981352,37.7157057 67.1860192,37.6917345 C67.117258,37.5556817 67.0520693,37.4178687 66.9904299,37.2781384 C66.9844289,37.2645329 66.9786045,37.251238 66.9728122,37.237926 L66.9904299,37.2781384 C66.9664437,37.2237643 66.942995,37.1690998 66.9200905,37.1141518 C66.9024191,37.0717498 66.8852807,37.029704 66.8684614,36.9874964 C66.8494166,36.9397176 66.8304863,36.8909523 66.8119828,36.8419774 C66.7988478,36.8072026 66.7861796,36.7730154 66.7737197,36.7387281 C66.7319684,36.6238216 66.6926689,36.5081484 66.6557511,36.3914166 C66.6439665,36.3541594 66.6323304,36.3164817 66.6209428,36.2786963 C66.6104487,36.2438714 66.6002538,36.2092604 66.5902679,36.174561 C66.5311052,35.9690175 66.4791878,35.7599582 66.4349338,35.548085 C66.4251098,35.501037 66.4157646,35.4543762 66.4067921,35.407583 C66.3999977,35.3721619 66.3933125,35.3360815 66.3868494,35.299924 C66.3777814,35.2491717 66.3692564,35.1989236 66.3611616,35.1485316 C66.355606,35.1139499 66.3502333,35.0791668 66.345066,35.0443167 C66.3358864,34.9824136 66.3273357,34.9201456 66.3194437,34.8576723 C66.3164059,34.8336155 66.3135139,34.8099368 66.3107167,34.7862291 C66.270632,34.4465828 66.25,34.1007008 66.25,33.75 L66.25,32.5 Z M67.5,22.5 L36.25,22.5 L36.25,23.75 C36.25,27.1109434 38.9028834,29.8522726 42.228888,29.9942256 L42.5,30 L68.75,30 L68.75,33.75 C68.75,33.863713 68.7530573,33.9767773 68.759097,34.0891103 C68.7618215,34.1410936 68.7652449,34.1930329 68.7692989,34.2447951 L68.7901227,34.4602938 C68.7936655,34.4914755 68.7974387,34.5225917 68.8014407,34.5536407 C68.8081995,34.6082741 68.8159351,34.6628037 68.8243695,34.7171022 L68.8014407,34.5536407 C68.8354559,34.8175451 68.8859959,35.0765897 68.95203,35.3296369 C68.9514501,35.3300632 68.951537,35.3303964 68.9516238,35.3307297 C68.9674671,35.3887929 68.983751,35.4476211 69.0008684,35.506107 C69.011502,35.5451697 69.0233337,35.5842251 69.0355353,35.6231168 L69.0008684,35.506107 C69.1357186,35.966855 69.3223033,36.4063598 69.5541849,36.8175155 C69.5633283,36.8352938 69.5730538,36.852332 69.5828569,36.8693198 L69.5541849,36.8175155 C69.5877859,36.8770943 69.622338,36.9360779 69.6578217,36.9944447 L69.5828569,36.8693198 C69.6192481,36.9323822 69.6567089,36.9947498 69.6952145,37.0563976 L69.6578217,36.9944447 C69.69828,37.0609941 69.7399494,37.1267416 69.7828008,37.191655 L69.6952145,37.0563976 C69.7415997,37.1306608 69.7895009,37.2038796 69.8388749,37.2760108 L69.7828008,37.191655 C69.8204029,37.2486167 69.8589152,37.3049361 69.8983181,37.3605917 L69.8388749,37.2760108 C69.8838359,37.3416949 69.9300181,37.4064771 69.9773889,37.4703246 L69.8983181,37.3605917 C69.9451173,37.4266945 69.9931728,37.4918608 70.0424517,37.5560544 L69.9773889,37.4703246 C70.0214375,37.5296945 70.0665139,37.5882562 70.1125916,37.6459835 L70.0424517,37.5560544 C70.0870849,37.6141962 70.1327216,37.6715399 70.1793376,37.7280587 L70.1125916,37.6459835 C70.1612978,37.7070038 70.2111229,37.7670917 70.2620358,37.8262161 L70.1793376,37.7280587 C70.2283637,37.7874998 70.2784729,37.8460284 70.3296368,37.9036132 L70.2620358,37.8262161 C70.368523,37.9498783 70.479769,38.0693258 70.5954894,38.1842744 C70.6101083,38.1994402 70.6248656,38.2139772 70.6396952,38.2284416 L70.5954894,38.1842744 C70.7092791,38.297305 70.8273952,38.4059856 70.9495674,38.5100458 C70.9510987,38.5124229 70.9531122,38.5141381 70.9551267,38.5158521 C71.5421516,39.0147794 72.2301623,39.410813 72.9827574,39.6673043 C72.9995418,39.6741031 73.0164458,39.6797716 73.033383,39.6853698 L72.9827574,39.6673043 C73.0567819,39.6925326 73.1314312,39.7164108 73.2066759,39.7389097 L73.033383,39.6853698 C73.1041088,39.7087469 73.1754143,39.7308991 73.2472758,39.7518004 L73.2066759,39.7389097 C73.3607985,39.7849937 73.5174193,39.8252908 73.6762862,39.8595487 L73.75,39.8725 L73.75,36.319 L73.7382094,30.1274279 L73.75,30.125 L73.75,28.75 C73.75,25.3890566 71.0971166,22.6477274 67.771112,22.5057744 L67.5,22.5 Z M76.25,32.713 L76.25,35.201 L76.25625,39.78375 C77.647662,39.2860391 78.6549223,38.0014036 78.7436341,36.470341 L78.75,36.25 C78.75,34.7040958 77.8145735,33.3766722 76.4788695,32.8028781 L76.25,32.713 Z" id="形状结合" fill="#2B2E36" fill-rule="nonzero"></path>
                <path d="M31.25,45 L31.25,47.5 L28.75,47.5 L28.75,45 L31.25,45 Z M91.25,45 L91.25,47.5 L88.75,47.5 L88.75,45 L91.25,45 Z M31.25,40 L31.25,42.5 L28.75,42.5 L28.75,40 L31.25,40 Z M26.25,40 L26.25,42.5 L23.75,42.5 L23.75,40 L26.25,40 Z M36.25,40 L36.25,42.5 L33.75,42.5 L33.75,40 L36.25,40 Z M91.25,40 L91.25,42.5 L88.75,42.5 L88.75,40 L91.25,40 Z M86.25,40 L86.25,42.5 L83.75,42.5 L83.75,40 L86.25,40 Z M96.25,40 L96.25,42.5 L93.75,42.5 L93.75,40 L96.25,40 Z" id="形状结合" fill="#2B2E36"></path>
            </g>
        </g>
    </g>
</svg>