<svg width="85" height="48" xmlns="http://www.w3.org/2000/svg"><defs><linearGradient x1="50%" y1="0%" x2="50%" y2="100%" id="a"><stop stop-color="#CD6AD9" offset="0%"/><stop stop-color="#7247EC" offset="100%"/></linearGradient></defs><g fill="none" fill-rule="evenodd"><path d="M82.293 48h-70.25c-1.105 0-2-.893-2-1.994v-8.782L.293 25.35c-.39-.466-.39-1.22 0-1.687 0 0 4.128-5.67 9.75-12.373V1.994c0-1.102.895-1.994 2-1.994h70.25c1.103 0 2 .892 2 1.994v44.012c0 1.1-.897 1.994-2 1.994" fill="url(#a)"/><path d="M60.334 14.281v3.738h5.042v15.769h4.183V18.019H74.6v-3.738H60.334ZM53.617 27.07c-.121.825-.338 1.49-.651 1.996a2.68 2.68 0 0 1-1.316 1.096c-.563.225-1.288.337-2.174.337-.887 0-1.607-.112-2.161-.337a2.682 2.682 0 0 1-1.302-1.096c-.314-.506-.531-1.171-.651-1.996s-.18-1.836-.18-3.036c0-1.18.06-2.187.18-3.021.12-.834.337-1.513.651-2.038a2.714 2.714 0 0 1 1.302-1.138c.554-.234 1.274-.352 2.161-.352.886 0 1.611.118 2.174.352a2.71 2.71 0 0 1 1.316 1.138c.313.525.53 1.204.651 2.038.119.834.18 1.841.18 3.021 0 1.2-.061 2.211-.18 3.036Zm2.341-11.032c-.739-.759-1.653-1.288-2.743-1.589-1.09-.299-2.336-.449-3.739-.449-1.385 0-2.623.15-3.712.449-1.09.301-2.004.83-2.742 1.589-.739.759-1.302 1.785-1.69 3.077-.388 1.293-.582 2.934-.582 4.919 0 1.987.194 3.626.582 4.919.388 1.293.951 2.319 1.69 3.078.738.759 1.652 1.289 2.742 1.588 1.089.3 2.327.45 3.712.45 1.403 0 2.649-.15 3.739-.45 1.09-.299 2.004-.829 2.743-1.588.738-.759 1.297-1.785 1.676-3.078.378-1.293.567-2.932.567-4.919 0-1.985-.189-3.626-.567-4.919-.379-1.292-.938-2.318-1.676-3.077ZM32.8 21.589h-7.59v-7.308H21v19.507h4.21v-8.63h7.59v8.63h4.183V14.281H32.8v7.308Z" fill="#FFF"/></g></svg>